<?xml version="1.0"?>
<!DOCTYPE svg PUBLIC "-//W3C//DTD SVG 1.1//EN" "http://www.w3.org/Graphics/SVG/1.1/DTD/svg11.dtd">
<svg enable-background="new 0 0 512 512"
     height="512px"
     id="Layer_1"
     version="1.1"
     viewBox="0 0 512 512"
     width="512px"
     xml:space="preserve"
     xmlns="http://www.w3.org/2000/svg"
     xmlns:xlink="http://www.w3.org/1999/xlink">
    <g>
        <circle cx="255.999"
                cy="256"
                r="251.408" />
        <path d="M249.275,394.2c77.299,0,139.371-62.074,139.371-138.201S326.574,117.8,249.275,117.8   c-76.127,0-138.198,62.072-138.198,138.199S173.148,394.2,249.275,394.2L249.275,394.2z"
              fill="#FFFFFF" />
        <path d="M249.275,319.242c35.134,0,64.415-28.106,64.415-63.243c0-35.136-29.28-63.242-64.415-63.242   c-35.136,0-63.243,28.106-63.243,63.242C186.032,291.136,214.14,319.242,249.275,319.242L249.275,319.242z" />
        <path d="M108.735,346.179c-8.197-15.224-7.027-35.134,4.686-57.387c-19.91,28.107-26.938,55.045-15.224,72.613   c11.711,22.252,46.847,28.108,90.179,18.739c-5.855-3.515-11.711-7.028-17.567-10.541   C141.527,370.774,118.104,362.578,108.735,346.179L108.735,346.179z"
              fill="#FFFFFF" />
        <path d="M390.987,166.989c9.371,15.226,7.027,35.136-4.684,57.389c19.908-28.107,26.937-55.045,16.396-73.783   c-12.882-22.254-48.018-26.938-90.179-18.74c5.855,3.514,11.711,7.029,17.566,11.712   C359.366,142.395,381.618,149.421,390.987,166.989L390.987,166.989z"
              fill="#FFFFFF" />
        <path d="M330.087,311.045c0-1.172,0-1.172,0-1.172c0-1.171,0-2.343-1.172-2.343h-1.172c-7.028,5.857-15.226,10.541-23.423,16.398   c-48.019,28.107-96.038,44.503-133.515,45.675c5.855,3.515,11.712,7.028,17.568,10.541c31.621-7.028,66.756-21.083,103.063-42.163   C305.492,328.612,318.376,320.414,330.087,311.045L330.087,311.045z" />
        <path d="M236.393,162.305c0,1.172,2.342,3.515,4.685,3.515c0,0,0,0,1.171,0c31.622-14.056,62.072-22.254,87.838-22.254   c-5.855-4.684-11.711-8.197-17.566-11.712c-23.423,4.685-48.02,14.056-73.785,26.937   C237.564,158.792,236.393,159.962,236.393,162.305L236.393,162.305z" />
        <path d="M393.33,275.909c11.713,21.08,14.057,40.99,5.856,56.217c-8.199,15.225-26.938,23.424-51.53,25.768   c33.964,2.342,59.73-5.856,70.271-24.595c10.539-16.397,4.684-39.82-12.884-65.585c-1.171-1.172-2.341-2.344-4.685-2.344   c-4.686,0-7.028,3.516-7.028,7.027C393.33,273.568,393.33,274.737,393.33,275.909L393.33,275.909z"
              fill="#FFFFFF" />
        <path d="M92.337,166.989c-1.171,1.172-3.513,3.513-3.513,5.856c1.171,3.513,4.685,7.026,9.37,5.854   c2.343,0,4.685-2.344,7.025-3.514c9.371-11.711,25.767-18.738,46.849-19.908C127.473,152.936,106.392,156.45,92.337,166.989   L92.337,166.989z"
              fill="#FFFFFF" />
    </g>
</svg>